<svg width="24" height="24" viewBox="0 0 24 24" fill="none" xmlns="http://www.w3.org/2000/svg">
<path d="M19.0844 4.91005C18.1629 3.98415 17.0654 3.25002 15.8558 2.75041C14.6463 2.25081 13.3489 1.99574 12.0392 2.00005C6.55179 2.00005 2.07943 6.45004 2.07943 11.91C2.07943 13.66 2.54174 15.36 3.40606 16.86L1.99902 22L7.2754 20.62C8.73269 21.41 10.3709 21.83 12.0392 21.83C17.5267 21.83 21.999 17.38 21.999 11.92C21.999 9.27003 20.9638 6.78004 19.0844 4.91005ZM12.0392 20.15C10.5518 20.15 9.0945 19.75 7.81812 19L7.51661 18.82L4.38093 19.64L5.2151 16.6L5.0141 16.29C4.18751 14.9771 3.7487 13.4593 3.74777 11.91C3.74777 7.37004 7.46636 3.67005 12.0292 3.67005C14.2402 3.67005 16.3206 4.53005 17.8784 6.09004C18.6499 6.8539 19.2613 7.76258 19.677 8.76336C20.0928 9.76415 20.3047 10.8371 20.3005 11.92C20.3206 16.46 16.602 20.15 12.0392 20.15ZM16.5819 13.99C16.3307 13.87 15.1045 13.27 14.8834 13.18C14.6523 13.1 14.4915 13.06 14.3206 13.3C14.1498 13.55 13.6774 14.11 13.5367 14.27C13.396 14.44 13.2453 14.46 12.994 14.33C12.7427 14.21 11.9387 13.94 10.994 13.1C10.2503 12.44 9.75782 11.63 9.60706 11.38C9.46636 11.13 9.58696 11 9.71762 10.87C9.82817 10.76 9.96887 10.58 10.0895 10.44C10.2101 10.3 10.2603 10.19 10.3407 10.03C10.4211 9.86003 10.3809 9.72003 10.3206 9.60003C10.2603 9.48003 9.75782 8.26004 9.55681 7.76004C9.35581 7.28004 9.14475 7.34004 8.994 7.33004H8.51159C8.34073 7.33004 8.07942 7.39004 7.84827 7.64004C7.62716 7.89004 6.98395 8.49004 6.98395 9.71003C6.98395 10.93 7.87842 12.11 7.99902 12.27C8.11963 12.44 9.75782 14.94 12.2503 16.01C12.8432 16.27 13.3056 16.42 13.6674 16.53C14.2603 16.72 14.803 16.69 15.2352 16.63C15.7176 16.56 16.7126 16.03 16.9136 15.45C17.1246 14.87 17.1247 14.38 17.0543 14.27C16.9839 14.16 16.8332 14.11 16.5819 13.99Z" fill="white"/>
</svg>
